<svg width="25" height="25" viewBox="0 0 25 25" fill="none" xmlns="http://www.w3.org/2000/svg">
<path d="M18.75 7.03125C18.75 7.23845 18.6677 7.43716 18.5212 7.58368C18.3747 7.73019 18.176 7.8125 17.9688 7.8125H15.625C15.4178 7.8125 15.2191 7.73019 15.0726 7.58368C14.9261 7.43716 14.8438 7.23845 14.8438 7.03125C14.8438 6.82405 14.9261 6.62534 15.0726 6.47882C15.2191 6.33231 15.4178 6.25 15.625 6.25H17.9688C18.176 6.25 18.3747 6.33231 18.5212 6.47882C18.6677 6.62534 18.75 6.82405 18.75 7.03125ZM17.9688 9.375H15.625C15.4178 9.375 15.2191 9.45731 15.0726 9.60382C14.9261 9.75034 14.8438 9.94905 14.8438 10.1562C14.8438 10.3635 14.9261 10.5622 15.0726 10.7087C15.2191 10.8552 15.4178 10.9375 15.625 10.9375H17.9688C18.176 10.9375 18.3747 10.8552 18.5212 10.7087C18.6677 10.5622 18.75 10.3635 18.75 10.1562C18.75 9.94905 18.6677 9.75034 18.5212 9.60382C18.3747 9.45731 18.176 9.375 17.9688 9.375ZM7.03125 7.8125H9.375C9.5822 7.8125 9.78091 7.73019 9.92743 7.58368C10.0739 7.43716 10.1562 7.23845 10.1562 7.03125C10.1562 6.82405 10.0739 6.62534 9.92743 6.47882C9.78091 6.33231 9.5822 6.25 9.375 6.25H7.03125C6.82405 6.25 6.62534 6.33231 6.47882 6.47882C6.33231 6.62534 6.25 6.82405 6.25 7.03125C6.25 7.23845 6.33231 7.43716 6.47882 7.58368C6.62534 7.73019 6.82405 7.8125 7.03125 7.8125ZM9.375 9.375H7.03125C6.82405 9.375 6.62534 9.45731 6.47882 9.60382C6.33231 9.75034 6.25 9.94905 6.25 10.1562C6.25 10.3635 6.33231 10.5622 6.47882 10.7087C6.62534 10.8552 6.82405 10.9375 7.03125 10.9375H9.375C9.5822 10.9375 9.78091 10.8552 9.92743 10.7087C10.0739 10.5622 10.1562 10.3635 10.1562 10.1562C10.1562 9.94905 10.0739 9.75034 9.92743 9.60382C9.78091 9.45731 9.5822 9.375 9.375 9.375ZM21.875 4.6875V21.875C21.875 22.0822 21.7927 22.2809 21.6462 22.4274C21.4997 22.5739 21.301 22.6562 21.0938 22.6562C20.8865 22.6562 20.6878 22.5739 20.5413 22.4274C20.3948 22.2809 20.3125 22.0822 20.3125 21.875V20.3125H13.2812V21.875C13.2812 22.0822 13.1989 22.2809 13.0524 22.4274C12.9059 22.5739 12.7072 22.6562 12.5 22.6562C12.2928 22.6562 12.0941 22.5739 11.9476 22.4274C11.8011 22.2809 11.7188 22.0822 11.7188 21.875V20.3125H4.6875V21.875C4.6875 22.0822 4.60519 22.2809 4.45868 22.4274C4.31216 22.5739 4.11345 22.6562 3.90625 22.6562C3.69905 22.6562 3.50034 22.5739 3.35382 22.4274C3.20731 22.2809 3.125 22.0822 3.125 21.875V4.6875C3.125 4.2731 3.28962 3.87567 3.58265 3.58265C3.87567 3.28962 4.2731 3.125 4.6875 3.125H20.3125C20.7269 3.125 21.1243 3.28962 21.4174 3.58265C21.7104 3.87567 21.875 4.2731 21.875 4.6875ZM11.7188 18.75V4.6875H4.6875V18.75H11.7188ZM13.2812 18.75H20.3125V4.6875H13.2812V18.75Z" fill="#F6F6F6"/>
</svg>
