<svg width="24" height="24" viewBox="0 0 24 24" fill="none" xmlns="http://www.w3.org/2000/svg">
<path d="M15.4107 16.9781C16.1028 16.3005 16.5773 15.4321 16.7737 14.4837C16.9702 13.5352 16.8797 12.5498 16.5138 11.653C16.1478 10.7562 15.5231 9.9888 14.7192 9.44857C13.9152 8.90835 12.9686 8.61984 12.0001 8.61984C11.0315 8.61984 10.0849 8.90835 9.28101 9.44857C8.4771 9.9888 7.85233 10.7562 7.4864 11.653C7.12047 12.5498 7.02996 13.5352 7.22642 14.4837C7.42288 15.4321 7.8974 16.3005 8.58946 16.9781C7.41772 17.601 6.44353 18.5391 5.77696 19.6866C5.6342 19.9445 5.59841 20.2482 5.67728 20.5323C5.75615 20.8163 5.94338 21.0581 6.19869 21.2055C6.45399 21.3529 6.75696 21.3943 7.04242 21.3206C7.32788 21.2469 7.57302 21.0641 7.72508 20.8116C8.16468 20.0688 8.79018 19.4534 9.53995 19.0259C10.2897 18.5984 11.1379 18.3736 12.001 18.3736C12.8641 18.3736 13.7123 18.5984 14.4621 19.0259C15.2119 19.4534 15.8374 20.0688 16.277 20.8116C16.3493 20.9423 16.447 21.0574 16.5644 21.15C16.6817 21.2426 16.8163 21.3108 16.9603 21.3508C17.1043 21.3908 17.2549 21.4017 17.4031 21.3828C17.5514 21.364 17.6944 21.3158 17.8239 21.2411C17.9533 21.1663 18.0665 21.0665 18.157 20.9475C18.2474 20.8285 18.3132 20.6927 18.3506 20.548C18.3879 20.4033 18.3961 20.2525 18.3745 20.1046C18.353 19.9567 18.3022 19.8146 18.2251 19.6866C17.558 18.5389 16.5831 17.6007 15.4107 16.9781ZM9.37508 13.5C9.37508 12.9808 9.52903 12.4733 9.81747 12.0416C10.1059 11.6099 10.5159 11.2735 10.9955 11.0748C11.4752 10.8761 12.003 10.8241 12.5122 10.9254C13.0214 11.0267 13.4891 11.2767 13.8562 11.6438C14.2233 12.011 14.4734 12.4787 14.5746 12.9879C14.6759 13.4971 14.6239 14.0249 14.4253 14.5045C14.2266 14.9842 13.8901 15.3942 13.4585 15.6826C13.0268 15.971 12.5193 16.125 12.0001 16.125C11.3039 16.125 10.6362 15.8484 10.1439 15.3562C9.65164 14.8639 9.37508 14.1962 9.37508 13.5ZM23.176 14.3991C23.0579 14.4879 22.9233 14.5526 22.7802 14.5894C22.637 14.6262 22.488 14.6345 22.3416 14.6136C22.1953 14.5928 22.0544 14.5434 21.9272 14.4681C21.8 14.3929 21.6888 14.2932 21.6001 14.175C20.8191 13.1353 19.7391 12.3384 18.8504 12.1462C18.6141 12.0951 18.4005 11.9692 18.2413 11.7872C18.0822 11.6052 17.9859 11.3768 17.9667 11.1358C17.9476 10.8947 18.0066 10.654 18.135 10.4491C18.2635 10.2442 18.4545 10.0862 18.6798 9.99843C18.9603 9.88894 19.2103 9.71351 19.4086 9.48698C19.607 9.26045 19.7478 8.98948 19.8193 8.69699C19.8908 8.40449 19.8908 8.09909 19.8193 7.8066C19.7478 7.51411 19.607 7.24313 19.4086 7.0166C19.2103 6.79007 18.9603 6.61464 18.6798 6.50515C18.3993 6.39566 18.0965 6.35533 17.7972 6.38757C17.4978 6.41982 17.2106 6.52368 16.9599 6.69039C16.7091 6.85709 16.5022 7.08173 16.3566 7.34531C16.2876 7.47888 16.1925 7.59725 16.0769 7.69344C15.9614 7.78963 15.8277 7.86168 15.6838 7.90533C15.54 7.94898 15.3888 7.96334 15.2393 7.94757C15.0897 7.93181 14.9449 7.88623 14.8133 7.81353C14.6817 7.74083 14.566 7.64249 14.473 7.52431C14.3801 7.40614 14.3117 7.27053 14.2721 7.1255C14.2324 6.98047 14.2222 6.82896 14.2421 6.67992C14.262 6.53089 14.3116 6.38736 14.3879 6.25781C14.6663 5.76557 15.0429 5.33583 15.4944 4.99528C15.9458 4.65473 16.4625 4.41064 17.0122 4.27818C17.562 4.14572 18.1331 4.12771 18.6902 4.22528C19.2472 4.32285 19.7782 4.5339 20.2502 4.84534C20.7222 5.15677 21.1252 5.56194 21.434 6.03566C21.7428 6.50938 21.951 7.04155 22.0455 7.59909C22.14 8.15664 22.1188 8.72767 21.9833 9.2767C21.8478 9.82573 21.6009 10.341 21.2579 10.7906C22.0834 11.3405 22.808 12.0283 23.4001 12.8241C23.5792 13.0626 23.6562 13.3626 23.6142 13.658C23.5722 13.9533 23.4146 14.2199 23.176 14.3991ZM5.14977 12.1491C4.26102 12.3412 3.18102 13.1381 2.40008 14.1787C2.22044 14.4173 1.95338 14.5748 1.65766 14.6164C1.36194 14.6581 1.06178 14.5806 0.823206 14.4009C0.584635 14.2213 0.427199 13.9542 0.385531 13.6585C0.343862 13.3628 0.421376 13.0626 0.601018 12.8241C1.19337 12.0286 1.91797 11.3408 2.74321 10.7906C2.40018 10.341 2.15325 9.82573 2.01777 9.2767C1.88228 8.72767 1.86113 8.15664 1.95563 7.59909C2.05013 7.04155 2.25827 6.50938 2.5671 6.03566C2.87593 5.56194 3.27887 5.15677 3.75089 4.84534C4.22291 4.5339 4.75392 4.32285 5.31094 4.22528C5.86796 4.12771 6.43909 4.14572 6.98886 4.27818C7.53863 4.41064 8.05529 4.65473 8.50675 4.99528C8.95821 5.33583 9.33483 5.76557 9.61321 6.25781C9.68952 6.38736 9.73908 6.53089 9.75897 6.67992C9.77887 6.82896 9.76869 6.98047 9.72903 7.1255C9.68937 7.27053 9.62105 7.40614 9.52809 7.52431C9.43513 7.64249 9.31943 7.74083 9.18782 7.81353C9.05621 7.88623 8.91137 7.93181 8.76184 7.94757C8.61232 7.96334 8.46115 7.94898 8.31727 7.90533C8.17339 7.86168 8.03972 7.78963 7.92416 7.69344C7.8086 7.59725 7.71349 7.47888 7.64446 7.34531C7.49889 7.08173 7.29198 6.85709 7.04124 6.69039C6.7905 6.52368 6.50329 6.41982 6.20392 6.38757C5.90455 6.35533 5.60182 6.39566 5.32133 6.50515C5.04084 6.61464 4.79085 6.79007 4.59249 7.0166C4.39414 7.24313 4.25325 7.51411 4.18176 7.8066C4.11027 8.09909 4.11027 8.40449 4.18176 8.69699C4.25325 8.98948 4.39413 9.26045 4.59249 9.48698C4.79085 9.71351 5.04084 9.88894 5.32133 9.99843C5.54662 10.0862 5.73763 10.2442 5.86606 10.4491C5.99449 10.654 6.0535 10.8947 6.03436 11.1358C6.01521 11.3768 5.91892 11.6052 5.75976 11.7872C5.60059 11.9692 5.38703 12.0951 5.15071 12.1462L5.14977 12.1491Z" fill="#F6F6F6"/>
</svg>
